<svg width="48" height="48" viewBox="0 0 48 48" fill="none" xmlns="http://www.w3.org/2000/svg">
<rect width="48" height="48" rx="8" fill="#E9EDF4"/>
<path opacity="0.3" d="M16.9531 26.3026L15.0469 25.6974C16.651 20.6444 19.6732 18 24 18C28.3268 18 31.349 20.6444 32.9531 25.6974L31.0469 26.3026C29.688 22.0223 27.3769 20 24 20C20.6231 20 18.3119 22.0223 16.9531 26.3026H16.9531ZM24 20C24.5523 20 25 19.5523 25 19C25 18.4477 24.5523 18 24 18C23.4477 18 23 18.4477 23 19C23 19.5523 23.4477 20 24 20Z" fill="#1F4D8F"/>
<path fill-rule="evenodd" clip-rule="evenodd" d="M17.7324 18H21.1707C21.5825 16.8348 22.6938 16 24 16C25.3062 16 26.4175 16.8348 26.8293 18H30.2676C30.6134 17.4022 31.2597 17 32 17C33.1046 17 34 17.8954 34 19C34 20.1046 33.1046 21 32 21C31.2597 21 30.6134 20.5978 30.2676 20H26.8293C26.4175 21.1652 25.3062 22 24 22C22.6938 22 21.5825 21.1652 21.1707 20H17.7324C17.3866 20.5978 16.7403 21 16 21C14.8954 21 14 20.1046 14 19C14 17.8954 14.8954 17 16 17C16.7403 17 17.3866 17.4022 17.7324 18V18ZM24 20C24.5523 20 25 19.5523 25 19C25 18.4477 24.5523 18 24 18C23.4477 18 23 18.4477 23 19C23 19.5523 23.4477 20 24 20ZM16 31C14.3432 31 13 29.6568 13 28C13 26.3432 14.3432 25 16 25C17.6568 25 19 26.3432 19 28C19 29.6568 17.6568 31 16 31ZM16 29C16.5523 29 17 28.5523 17 28C17 27.4477 16.5523 27 16 27C15.4477 27 15 27.4477 15 28C15 28.5523 15.4477 29 16 29ZM32 31C30.3432 31 29 29.6568 29 28C29 26.3432 30.3432 25 32 25C33.6568 25 35 26.3432 35 28C35 29.6568 33.6568 31 32 31ZM32 29C32.5523 29 33 28.5523 33 28C33 27.4477 32.5523 27 32 27C31.4477 27 31 27.4477 31 28C31 28.5523 31.4477 29 32 29Z" fill="#1F4D8F"/>
</svg>
