<svg width="48" height="48" viewBox="0 0 48 48" fill="none" xmlns="http://www.w3.org/2000/svg">
<rect width="48" height="48" rx="8" fill="#E9EDF4"/>
<path fill-rule="evenodd" clip-rule="evenodd" d="M17 15H18C18.5523 15 19 15.4477 19 16V32C19 32.5523 18.5523 33 18 33H17C16.4477 33 16 32.5523 16 32V16C16 15.4477 16.4477 15 17 15ZM22 15H23C23.5523 15 24 15.4477 24 16V32C24 32.5523 23.5523 33 23 33H22C21.4477 33 21 32.5523 21 32V16C21 15.4477 21.4477 15 22 15Z" fill="#1F4D8F"/>
<path opacity="0.3" fill-rule="evenodd" clip-rule="evenodd" d="M32.283 32.6176C31.7608 32.7974 31.1918 32.5198 31.012 31.9977L25.8029 16.8693C25.6231 16.3472 25.9006 15.7781 26.4228 15.5983L27.3683 15.2727C27.8905 15.0929 28.4596 15.3705 28.6394 15.8926L33.8485 31.0209C34.0283 31.5431 33.7507 32.1122 33.2286 32.292L32.283 32.6176Z" fill="#1F4D8F"/>
</svg>
