<svg width="48" height="48" viewBox="0 0 48 48" fill="none" xmlns="http://www.w3.org/2000/svg">
<rect width="48" height="48" rx="8" fill="#E9EDF4"/>
<path fill-rule="evenodd" clip-rule="evenodd" d="M23 14V22C23 22.0862 23.0109 22.1699 23.0314 22.2498C22.4163 22.5909 22 23.2468 22 24C22 25.1046 22.8954 26 24 26C25.1045 26 26 25.1046 26 24C26 23.2468 25.5836 22.5909 24.9685 22.2498C24.9891 22.1699 25 22.0862 25 22V14L29.7925 23.5852C29.9241 23.8483 29.9331 24.1559 29.8173 24.4263L27.1298 30.697C27.051 30.8808 26.8703 31 26.6703 31H21.3297C21.1297 31 20.9489 30.8808 20.8701 30.697L18.1827 24.4263C18.0668 24.1559 18.0758 23.8483 18.2074 23.5852L23 14H23Z" fill="#1F4D8F"/>
<path opacity="0.3" fill-rule="evenodd" clip-rule="evenodd" d="M22.0002 32H26.0002C26.5525 32 27.0002 32.4477 27.0002 33V34H21.0002V33C21.0002 32.4477 21.448 32 22.0002 32Z" fill="#1F4D8F"/>
</svg>
