<svg width="48" height="48" viewBox="0 0 48 48" fill="none" xmlns="http://www.w3.org/2000/svg">
<rect width="48" height="48" rx="8" fill="#E9EDF4"/>
<path opacity="0.3" fill-rule="evenodd" clip-rule="evenodd" d="M30.3639 17.636C33.8787 21.1508 33.8787 26.8492 30.3639 30.3639C26.8492 33.8787 21.1507 33.8787 17.636 30.3639C14.1213 26.8492 14.1213 21.1507 17.636 17.636C21.1508 14.1213 26.8492 14.1213 30.3639 17.636" fill="#1F4D8F"/>
<path opacity="0.3" fill-rule="evenodd" clip-rule="evenodd" d="M23.7358 32.9962C18.8874 32.8564 15 28.8822 15 24C15 23.9169 15.0011 23.834 15.0034 23.7513C15.6623 23.8144 16.8564 23.9574 16.9126 24.4204C16.9905 25.0609 16.9126 25.8616 17.458 26.1018C18.0035 26.342 18.1593 25.141 18.6267 25.4613C19.0942 25.7816 20.3409 26.09 20.3409 26.6562C20.3409 27.2224 20.1072 28.1035 20.3409 28.2637C20.5746 28.4238 21.509 29.5447 21.5092 29.7048C21.5096 29.865 21.8386 30.6794 21.7404 30.9907C21.6591 31.2488 21.2486 32.0502 20.8506 32.4146C21.7532 32.7621 22.7236 32.9658 23.7358 32.9961V32.9962L23.7358 32.9962ZM20.2827 15.8011C21.4158 15.2866 22.6745 15 24 15C27.5115 15 30.5532 17.011 32.0364 19.9441C32.0697 20.7241 32.0638 21.3913 32.2361 21.6327C33.1132 22.86 30.0995 23.7043 30.5573 25.5605C30.759 26.3795 28.5528 26.1197 28.014 26.8864C27.4748 27.6527 26.1575 27.1378 25.852 26.9905C25.5466 26.8432 24.3766 27.3341 24.4789 26.4995C24.5806 25.6646 25.2923 25.6156 26.0556 25.272C26.8185 24.9287 27.9189 23.7872 27.3782 23.638C24.8323 22.9362 23.9638 20.4785 23.9638 20.4785C23.811 20.449 23.8494 18.7411 23.1884 18.6921C22.5267 18.6428 22.1705 18.8884 21.2043 18.6921C20.2376 18.4957 20.4414 17.8574 20.2887 16.4826C20.2545 16.1742 20.2562 15.9572 20.2827 15.8011L20.2827 15.8011ZM32.9991 23.877C32.9997 23.918 33 23.9589 33 24C33 28.9407 29.0188 32.9515 24.0895 32.9996C28.9702 32.9503 32.9337 28.8884 32.9991 23.877L32.9991 23.877Z" fill="#1F4D8F"/>
</svg>
