<svg width="48" height="48" viewBox="0 0 48 48" fill="none" xmlns="http://www.w3.org/2000/svg">
<rect width="48" height="48" rx="8" fill="#E9EDF4"/>
<path opacity="0.3" fill-rule="evenodd" clip-rule="evenodd" d="M23 32V29C23 28.4477 23.4477 28 24 28C24.5523 28 25 28.4477 25 29V32H27.5C27.7761 32 28 32.2239 28 32.5C28 32.7761 27.7761 33 27.5 33H20.5C20.2239 33 20 32.7761 20 32.5C20 32.2239 20.2239 32 20.5 32H23Z" fill="#1F4D8F"/>
<path fill-rule="evenodd" clip-rule="evenodd" d="M15 17H33C33.5523 17 34 17.4477 34 18V28C34 28.5523 33.5523 29 33 29H15C14.4477 29 14 28.5523 14 28V18C14 17.4477 14.4477 17 15 17ZM16.5 20C16.2239 20 16 20.2239 16 20.5C16 20.7761 16.2239 21 16.5 21H25.5C25.7761 21 26 20.7761 26 20.5C26 20.2239 25.7761 20 25.5 20H16.5ZM16.5 22C16.2239 22 16 22.2239 16 22.5C16 22.7761 16.2239 23 16.5 23H19.5C19.7761 23 20 22.7761 20 22.5C20 22.2239 19.7761 22 19.5 22H16.5Z" fill="#1F4D8F"/>
</svg>
