<svg width="48" height="48" viewBox="0 0 48 48" fill="none" xmlns="http://www.w3.org/2000/svg">
<rect width="48" height="48" rx="8" fill="#E9EDF4"/>
<path opacity="0.3" d="M32 30H20C19.4477 30 19 30.4477 19 31C19 31.5523 19.4477 32 20 32H32V33C32 33.6269 31.6418 34 31 34H19C17.2536 34 16 32.6942 16 31V17C16 15.3058 17.2536 14 19 14H31C31.6418 14 32 14.3731 32 15V30Z" fill="#1F4D8F"/>
<path opacity="0.3" fill-rule="evenodd" clip-rule="evenodd" d="M21.35 23.5878C20.5736 23.3788 20 22.6418 20 21.7647C20 20.7251 20.8059 19.8824 21.8 19.8824C21.851 19.8824 21.9015 19.8846 21.9514 19.8889C22.3203 18.7888 23.3221 18 24.5 18C25.6779 18 26.6797 18.7888 27.0486 19.8889C27.0985 19.8846 27.149 19.8824 27.2 19.8824C28.1941 19.8824 29 20.7251 29 21.7647C29 22.6418 28.4264 23.3788 27.65 23.5878V25.5294C27.65 25.7893 27.4485 26 27.2 26H21.8C21.5515 26 21.35 25.7893 21.35 25.5294V23.5878H21.35Z" fill="#1F4D8F"/>
</svg>
