<svg width="48" height="48" viewBox="0 0 48 48" fill="none" xmlns="http://www.w3.org/2000/svg">
<rect width="48" height="48" rx="8" fill="#E9EDF4"/>
<path fill-rule="evenodd" clip-rule="evenodd" d="M25.6855 30.7078C27.9114 29.8185 30.6829 29.2491 34 28.9995C34 28.932 34 25.1008 34 17.5058H34C34 17.2297 33.7761 17.0059 33.5 17.0059C33.4958 17.0059 33.4916 17.0059 33.4874 17.006C30.6582 17.0776 27.8291 17.7421 25 18.9995C25 19.044 25 22.792 25 30.2434H25C25 30.5196 25.2239 30.7434 25.5 30.7434C25.5636 30.7434 25.6265 30.7313 25.6855 30.7078Z" fill="#1F4D8F"/>
<path opacity="0.3" fill-rule="evenodd" clip-rule="evenodd" d="M22.3145 30.7078C20.0886 29.8185 17.3171 29.2491 14 28.9995C14 28.932 14 25.1008 14 17.5058H14C14 17.2297 14.2239 17.0059 14.5 17.0059C14.5042 17.0059 14.5084 17.0059 14.5127 17.006C17.3418 17.0776 20.1709 17.7421 23 18.9995C23 19.044 23 22.792 23 30.2434H23C23 30.5196 22.7762 30.7434 22.5 30.7434C22.4365 30.7434 22.3735 30.7313 22.3145 30.7078Z" fill="#1F4D8F"/>
</svg>
